<svg width="92" height="20" viewBox="0 0 92 20" fill="none" xmlns="http://www.w3.org/2000/svg">
<g id="Group 130">
<path id="Star 6" d="M10.3468 0L12.6698 6.90983H20.1872L14.1055 11.1803L16.4285 18.0902L10.3468 13.8197L4.26511 18.0902L6.58812 11.1803L0.50641 6.90983H8.02382L10.3468 0Z" fill="#FBBE42"/>
<path id="Star 7" d="M27.9365 0L30.2595 6.90983H37.7769L31.6952 11.1803L34.0182 18.0902L27.9365 13.8197L21.8548 18.0902L24.1778 11.1803L18.0961 6.90983H25.6135L27.9365 0Z" fill="#FBBE42"/>
<path id="Star 8" d="M45.5265 0L47.8495 6.90983H55.3669L49.2852 11.1803L51.6082 18.0902L45.5265 13.8197L39.4448 18.0902L41.7678 11.1803L35.6861 6.90983H43.2035L45.5265 0Z" fill="#FBBE42"/>
<path id="Star 9" d="M63.1164 0L65.4394 6.90983H72.9568L66.8751 11.1803L69.1981 18.0902L63.1164 13.8197L57.0346 18.0902L59.3576 11.1803L53.2759 6.90983H60.7933L63.1164 0Z" fill="#FBBE42"/>
<path id="Star 10" d="M80.7062 0L83.0292 6.90983H90.5466L84.4649 11.1803L86.7879 18.0902L80.7062 13.8197L74.6245 18.0902L76.9475 11.1803L70.8658 6.90983H78.3832L80.7062 0Z" fill="#FBBE42"/>
</g>
</svg>
